<?xml version="1.0" standalone="no"?>
<!DOCTYPE svg PUBLIC "-//W3C//DTD SVG 20010904//EN"
 "http://www.w3.org/TR/2001/REC-SVG-20010904/DTD/svg10.dtd">
<svg version="1.0" xmlns="http://www.w3.org/2000/svg"
 width="500.000000pt" height="500.000000pt" viewBox="0 0 500.000000 500.000000"
 preserveAspectRatio="xMidYMid meet">
<metadata>
Created by potrace 1.14, written by Peter Selinger 2001-2017
</metadata>
<g transform="translate(0.000000,500.000000) scale(0.100000,-0.100000)"
fill="#000000" stroke="none">
<path d="M2435 4984 c-11 -8 -64 -40 -118 -72 -54 -31 -111 -64 -125 -73 -15
-9 -155 -92 -312 -184 -157 -92 -297 -175 -312 -184 -15 -9 -80 -47 -145 -86
-65 -38 -127 -75 -138 -81 -11 -5 -92 -53 -180 -106 -370 -220 -435 -258 -445
-258 -5 0 -10 -4 -10 -8 0 -4 -24 -20 -52 -36 -29 -15 -78 -43 -108 -62 -30
-18 -69 -41 -86 -49 -17 -9 -40 -24 -50 -34 -19 -17 -19 -54 -19 -1243 0 -675
2 -1228 5 -1231 3 -2 32 -19 65 -38 74 -42 76 -43 177 -103 46 -27 137 -80
203 -119 66 -38 253 -149 415 -245 162 -96 309 -183 325 -192 108 -62 162 -95
178 -108 9 -8 17 -12 17 -8 0 4 12 -2 27 -14 14 -11 29 -16 32 -11 3 5 6 565
6 1244 l-1 1236 126 73 c69 40 193 113 275 162 83 49 164 97 180 106 41 24
313 184 355 210 35 21 228 135 260 153 19 10 112 65 205 120 236 139 404 239
582 344 l152 90 -177 100 c-97 55 -207 117 -243 137 l-66 36 -338 -200 c-186
-110 -340 -200 -343 -200 -3 0 -20 -11 -38 -25 -18 -14 -36 -25 -40 -25 -4 0
-28 -13 -53 -29 -25 -16 -134 -80 -241 -143 -107 -63 -267 -158 -355 -210 -88
-52 -167 -97 -175 -101 -8 -4 -134 -78 -280 -165 l-265 -157 -2 -954 c-2 -525
-5 -956 -7 -959 -3 -2 -28 10 -56 27 -28 17 -52 31 -55 31 -2 0 -19 10 -38 22
-19 13 -100 61 -180 108 l-147 85 3 959 2 959 395 234 c217 128 406 239 420
246 14 6 27 14 30 17 3 3 88 55 190 114 102 60 246 145 320 189 74 43 149 87
165 97 17 9 55 32 85 50 30 18 69 41 85 50 61 35 251 147 290 171 22 13 51 30
65 37 14 7 36 21 49 31 l24 18 -139 77 c-76 43 -153 86 -171 96 -17 10 -64 36
-105 58 -66 36 -75 39 -93 26z"/>
<path d="M4245 3833 c-76 -46 -198 -118 -270 -160 -189 -110 -273 -160 -430
-253 -308 -183 -411 -243 -435 -257 -14 -7 -209 -122 -435 -256 l-410 -243 0
-1258 c0 -692 2 -1261 5 -1265 13 -18 242 -142 253 -137 6 3 40 23 74 43 82
50 308 184 341 203 15 8 83 49 152 89 142 84 474 280 725 428 94 55 197 116
230 136 33 20 107 63 165 96 58 34 184 108 280 165 l175 104 1 841 1 841 -36
-22 c-20 -12 -60 -37 -89 -55 -29 -18 -54 -33 -57 -33 -3 0 -28 -15 -57 -33
-29 -19 -73 -45 -98 -59 -25 -14 -106 -61 -180 -105 -74 -44 -214 -126 -310
-183 -96 -57 -273 -161 -392 -232 l-218 -129 0 -279 c0 -258 4 -304 25 -270 4
6 27 22 53 35 26 14 56 31 67 38 69 43 126 77 130 77 2 0 44 24 92 53 49 30
109 65 133 79 66 37 369 216 412 244 20 13 39 20 41 16 2 -4 3 -128 3 -276 -1
-257 -2 -269 -21 -280 -11 -6 -39 -23 -62 -38 -23 -16 -45 -28 -49 -28 -4 0
-24 -11 -43 -24 -44 -28 -326 -196 -361 -213 -14 -7 -38 -22 -55 -33 -16 -11
-37 -23 -45 -27 -9 -5 -68 -39 -133 -78 -64 -38 -127 -76 -140 -82 -12 -7
-134 -80 -272 -161 -137 -82 -252 -148 -254 -146 -8 7 -3 1676 5 1684 8 7 179
109 542 322 231 135 377 222 887 523 138 81 266 157 285 168 19 10 72 41 116
68 l82 49 -2 121 -1 121 -40 22 c-76 43 -130 73 -185 103 l-55 31 -140 -85z"/>
</g>
</svg>
